<svg xmlns="http://www.w3.org/2000/svg" xmlns:xlink="http://www.w3.org/1999/xlink" width="400" zoomAndPan="magnify" viewBox="0 0 300 299.999988" height="400" preserveAspectRatio="xMidYMid meet" version="1.0"><defs><clipPath id="539ab1e6db"><path d="M 159 5.382812 L 294.75 5.382812 L 294.75 141 L 159 141 Z M 159 5.382812 " clip-rule="nonzero"/></clipPath><clipPath id="dfef1bce33"><path d="M 153.273438 0 L 300 0 L 300 146.726562 L 153.273438 146.726562 Z M 153.273438 0 " clip-rule="nonzero"/></clipPath><clipPath id="2b450d315d"><path d="M 226.636719 0 C 186.117188 0 153.273438 32.847656 153.273438 73.363281 C 153.273438 113.882812 186.117188 146.726562 226.636719 146.726562 C 267.152344 146.726562 300 113.882812 300 73.363281 C 300 32.847656 267.152344 0 226.636719 0 Z M 226.636719 0 " clip-rule="nonzero"/></clipPath><clipPath id="35e389dfe8"><path d="M 0.273438 0 L 147 0 L 147 146.726562 L 0.273438 146.726562 Z M 0.273438 0 " clip-rule="nonzero"/></clipPath><clipPath id="0c27605423"><path d="M 73.636719 0 C 33.117188 0 0.273438 32.847656 0.273438 73.363281 C 0.273438 113.882812 33.117188 146.726562 73.636719 146.726562 C 114.152344 146.726562 147 113.882812 147 73.363281 C 147 32.847656 114.152344 0 73.636719 0 Z M 73.636719 0 " clip-rule="nonzero"/></clipPath><clipPath id="277314f73c"><rect x="0" width="147" y="0" height="147"/></clipPath><clipPath id="6753217630"><path d="M 158.65625 5.382812 L 294.617188 5.382812 L 294.617188 141.34375 L 158.65625 141.34375 Z M 158.65625 5.382812 " clip-rule="nonzero"/></clipPath><clipPath id="d01ac51e4f"><path d="M 226.636719 5.382812 C 189.089844 5.382812 158.65625 35.820312 158.65625 73.363281 C 158.65625 110.910156 189.089844 141.34375 226.636719 141.34375 C 264.179688 141.34375 294.617188 110.910156 294.617188 73.363281 C 294.617188 35.820312 264.179688 5.382812 226.636719 5.382812 Z M 226.636719 5.382812 " clip-rule="nonzero"/></clipPath><clipPath id="0a187d812b"><path d="M 0.65625 0.382812 L 136.617188 0.382812 L 136.617188 136.34375 L 0.65625 136.34375 Z M 0.65625 0.382812 " clip-rule="nonzero"/></clipPath><clipPath id="093b5c0838"><path d="M 68.636719 0.382812 C 31.089844 0.382812 0.65625 30.820312 0.65625 68.363281 C 0.65625 105.910156 31.089844 136.34375 68.636719 136.34375 C 106.179688 136.34375 136.617188 105.910156 136.617188 68.363281 C 136.617188 30.820312 106.179688 0.382812 68.636719 0.382812 Z M 68.636719 0.382812 " clip-rule="nonzero"/></clipPath><clipPath id="8641d8651a"><rect x="0" width="137" y="0" height="137"/></clipPath><clipPath id="a31a275e99"><path d="M 186.59375 42.78125 L 266.84375 42.78125 L 266.84375 104 L 186.59375 104 Z M 186.59375 42.78125 " clip-rule="nonzero"/></clipPath></defs><rect x="-30" width="360" fill="#ffffff" y="-29.999999" height="359.999986" fill-opacity="1"/><path fill="#053262" d="M 257.78125 269.304688 C 257.785156 270.308594 257.734375 271.3125 257.636719 272.3125 C 257.535156 273.3125 257.390625 274.304688 257.195312 275.289062 C 256.996094 276.277344 256.753906 277.25 256.460938 278.210938 C 256.171875 279.175781 255.832031 280.117188 255.445312 281.046875 C 255.0625 281.976562 254.632812 282.882812 254.160156 283.769531 C 253.6875 284.65625 253.167969 285.515625 252.609375 286.351562 C 252.054688 287.1875 251.453125 287.996094 250.816406 288.773438 C 250.179688 289.550781 249.503906 290.292969 248.792969 291.003906 C 248.085938 291.714844 247.339844 292.386719 246.5625 293.027344 C 245.785156 293.664062 244.980469 294.261719 244.144531 294.820312 C 243.308594 295.378906 242.449219 295.894531 241.5625 296.367188 C 240.675781 296.84375 239.765625 297.269531 238.839844 297.65625 C 237.910156 298.039062 236.964844 298.378906 236.003906 298.671875 C 235.042969 298.960938 234.066406 299.207031 233.082031 299.402344 C 232.097656 299.597656 231.101562 299.746094 230.101562 299.84375 C 229.101562 299.941406 228.101562 299.992188 227.09375 299.992188 C 226.089844 299.992188 225.085938 299.941406 224.085938 299.84375 C 223.085938 299.746094 222.09375 299.597656 221.109375 299.402344 C 220.121094 299.207031 219.148438 298.960938 218.1875 298.671875 C 217.222656 298.378906 216.28125 298.039062 215.351562 297.65625 C 214.421875 297.269531 213.515625 296.84375 212.628906 296.367188 C 211.742188 295.894531 210.878906 295.378906 210.046875 294.820312 C 209.210938 294.261719 208.402344 293.664062 207.625 293.027344 C 206.847656 292.386719 206.105469 291.714844 205.394531 291.003906 C 204.683594 290.292969 204.011719 289.550781 203.371094 288.773438 C 202.734375 287.996094 202.136719 287.1875 201.578125 286.351562 C 201.019531 285.515625 200.503906 284.65625 200.03125 283.769531 C 199.554688 282.882812 199.125 281.976562 198.742188 281.046875 C 198.359375 280.117188 198.019531 279.175781 197.726562 278.210938 C 197.4375 277.25 197.191406 276.277344 196.996094 275.289062 C 196.800781 274.304688 196.652344 273.3125 196.554688 272.3125 C 196.457031 271.3125 196.40625 270.308594 196.40625 269.304688 C 196.40625 268.296875 196.457031 267.296875 196.554688 266.296875 C 196.652344 265.296875 196.800781 264.300781 196.996094 263.316406 C 197.191406 262.332031 197.4375 261.355469 197.726562 260.394531 C 198.019531 259.433594 198.359375 258.488281 198.742188 257.558594 C 199.125 256.632812 199.554688 255.722656 200.03125 254.835938 C 200.503906 253.949219 201.019531 253.089844 201.578125 252.253906 C 202.136719 251.417969 202.734375 250.613281 203.371094 249.835938 C 204.011719 249.058594 204.683594 248.3125 205.394531 247.605469 C 206.105469 246.894531 206.847656 246.21875 207.625 245.582031 C 208.402344 244.945312 209.210938 244.34375 210.046875 243.785156 C 210.878906 243.230469 211.742188 242.710938 212.628906 242.238281 C 213.515625 241.765625 214.421875 241.335938 215.351562 240.949219 C 216.28125 240.566406 217.222656 240.226562 218.1875 239.9375 C 219.148438 239.644531 220.121094 239.402344 221.109375 239.203125 C 222.09375 239.007812 223.085938 238.863281 224.085938 238.761719 C 225.085938 238.664062 226.089844 238.613281 227.09375 238.613281 C 228.101562 238.613281 229.101562 238.664062 230.101562 238.761719 C 231.101562 238.863281 232.097656 239.007812 233.082031 239.203125 C 234.066406 239.402344 235.042969 239.644531 236.003906 239.9375 C 236.964844 240.226562 237.910156 240.566406 238.839844 240.949219 C 239.765625 241.335938 240.675781 241.765625 241.5625 242.238281 C 242.449219 242.710938 243.308594 243.230469 244.144531 243.785156 C 244.980469 244.34375 245.785156 244.945312 246.5625 245.582031 C 247.339844 246.21875 248.085938 246.894531 248.792969 247.605469 C 249.503906 248.3125 250.179688 249.058594 250.816406 249.835938 C 251.453125 250.613281 252.054688 251.417969 252.609375 252.253906 C 253.167969 253.089844 253.6875 253.949219 254.160156 254.835938 C 254.632812 255.722656 255.0625 256.632812 255.445312 257.558594 C 255.832031 258.488281 256.171875 259.433594 256.460938 260.394531 C 256.753906 261.355469 256.996094 262.332031 257.195312 263.316406 C 257.390625 264.300781 257.535156 265.296875 257.636719 266.296875 C 257.734375 267.296875 257.785156 268.296875 257.78125 269.304688 Z M 257.78125 269.304688 " fill-opacity="1" fill-rule="nonzero"/><path fill="#053262" d="M 135.027344 269.304688 C 135.027344 270.308594 134.980469 271.3125 134.882812 272.3125 C 134.78125 273.3125 134.636719 274.304688 134.441406 275.289062 C 134.242188 276.277344 134 277.25 133.707031 278.210938 C 133.417969 279.175781 133.078125 280.117188 132.691406 281.046875 C 132.308594 281.976562 131.878906 282.882812 131.40625 283.769531 C 130.933594 284.65625 130.414062 285.515625 129.855469 286.351562 C 129.300781 287.1875 128.699219 287.996094 128.0625 288.773438 C 127.425781 289.550781 126.75 290.292969 126.039062 291.003906 C 125.332031 291.714844 124.585938 292.386719 123.808594 293.027344 C 123.03125 293.664062 122.226562 294.261719 121.390625 294.820312 C 120.554688 295.378906 119.695312 295.894531 118.808594 296.367188 C 117.921875 296.84375 117.011719 297.269531 116.085938 297.65625 C 115.15625 298.039062 114.210938 298.378906 113.25 298.671875 C 112.289062 298.960938 111.3125 299.207031 110.328125 299.402344 C 109.34375 299.597656 108.347656 299.746094 107.347656 299.84375 C 106.347656 299.941406 105.347656 299.992188 104.339844 299.992188 C 103.335938 299.992188 102.332031 299.941406 101.332031 299.84375 C 100.332031 299.746094 99.339844 299.597656 98.355469 299.402344 C 97.367188 299.207031 96.394531 298.960938 95.433594 298.671875 C 94.46875 298.378906 93.527344 298.039062 92.597656 297.65625 C 91.667969 297.269531 90.761719 296.84375 89.875 296.367188 C 88.988281 295.894531 88.125 295.378906 87.292969 294.820312 C 86.457031 294.261719 85.648438 293.664062 84.871094 293.027344 C 84.09375 292.386719 83.351562 291.714844 82.640625 291.003906 C 81.929688 290.292969 81.257812 289.550781 80.617188 288.773438 C 79.980469 287.996094 79.382812 287.1875 78.824219 286.351562 C 78.265625 285.515625 77.75 284.65625 77.277344 283.769531 C 76.800781 282.882812 76.371094 281.976562 75.988281 281.046875 C 75.605469 280.117188 75.265625 279.175781 74.972656 278.210938 C 74.683594 277.25 74.4375 276.277344 74.242188 275.289062 C 74.046875 274.304688 73.898438 273.3125 73.800781 272.3125 C 73.703125 271.3125 73.652344 270.308594 73.652344 269.304688 C 73.652344 268.296875 73.703125 267.296875 73.800781 266.296875 C 73.898438 265.296875 74.046875 264.300781 74.242188 263.316406 C 74.4375 262.332031 74.683594 261.355469 74.972656 260.394531 C 75.265625 259.433594 75.605469 258.488281 75.988281 257.558594 C 76.371094 256.632812 76.800781 255.722656 77.277344 254.835938 C 77.75 253.949219 78.265625 253.089844 78.824219 252.253906 C 79.382812 251.417969 79.980469 250.613281 80.617188 249.835938 C 81.257812 249.058594 81.929688 248.3125 82.640625 247.605469 C 83.351562 246.894531 84.09375 246.21875 84.871094 245.582031 C 85.648438 244.945312 86.457031 244.34375 87.292969 243.785156 C 88.125 243.230469 88.988281 242.710938 89.875 242.238281 C 90.761719 241.765625 91.667969 241.335938 92.597656 240.949219 C 93.527344 240.566406 94.46875 240.226562 95.433594 239.9375 C 96.394531 239.644531 97.367188 239.402344 98.355469 239.203125 C 99.339844 239.007812 100.332031 238.863281 101.332031 238.761719 C 102.332031 238.664062 103.335938 238.613281 104.339844 238.613281 C 105.347656 238.613281 106.347656 238.664062 107.347656 238.761719 C 108.347656 238.863281 109.34375 239.007812 110.328125 239.203125 C 111.3125 239.402344 112.289062 239.644531 113.25 239.9375 C 114.210938 240.226562 115.15625 240.566406 116.085938 240.949219 C 117.011719 241.335938 117.921875 241.765625 118.808594 242.238281 C 119.695312 242.710938 120.554688 243.230469 121.390625 243.785156 C 122.226562 244.34375 123.03125 244.945312 123.808594 245.582031 C 124.585938 246.21875 125.332031 246.894531 126.039062 247.605469 C 126.75 248.3125 127.425781 249.058594 128.0625 249.835938 C 128.699219 250.613281 129.300781 251.417969 129.855469 252.253906 C 130.414062 253.089844 130.933594 253.949219 131.40625 254.835938 C 131.878906 255.722656 132.308594 256.632812 132.691406 257.558594 C 133.078125 258.488281 133.417969 259.433594 133.707031 260.394531 C 134 261.355469 134.242188 262.332031 134.441406 263.316406 C 134.636719 264.300781 134.78125 265.296875 134.882812 266.296875 C 134.980469 267.296875 135.027344 268.296875 135.027344 269.304688 Z M 135.027344 269.304688 " fill-opacity="1" fill-rule="nonzero"/><path fill="#053262" d="M 251.644531 226.339844 L 109.976562 226.339844 C 89.5625 226.339844 71.847656 211.816406 67.847656 191.808594 L 37.929688 42.207031 L 6.136719 42.207031 C 2.75 42.207031 0 39.460938 0 36.070312 C 0 32.683594 2.75 29.933594 6.136719 29.933594 L 42.964844 29.933594 C 45.886719 29.933594 48.402344 31.996094 48.980469 34.867188 L 79.886719 189.390625 C 82.75 203.691406 95.390625 214.0625 109.976562 214.0625 L 251.644531 214.0625 C 255.035156 214.0625 257.78125 216.8125 257.78125 220.203125 C 257.78125 223.589844 255.035156 226.339844 251.644531 226.339844 Z M 251.644531 226.339844 " fill-opacity="1" fill-rule="nonzero"/><path fill="#053262" d="M 269.714844 143.835938 C 267.886719 142.757812 265.640625 142.683594 263.761719 143.675781 C 252.285156 149.65625 239.945312 152.6875 227.09375 152.6875 C 183.101562 152.6875 147.355469 119.421875 147.414062 74.417969 C 147.414062 74.332031 147.476562 73.15625 147.488281 73.082031 C 147.539062 71.386719 146.886719 69.753906 145.695312 68.5625 C 144.492188 67.359375 142.835938 66.722656 141.167969 66.757812 L 55.054688 66.757812 C 53.261719 66.808594 51.582031 67.65625 50.464844 69.054688 C 49.335938 70.441406 48.867188 72.257812 49.210938 74.027344 L 67.625 172.230469 C 68.164062 175.140625 70.695312 177.238281 73.652344 177.238281 L 242.242188 177.238281 C 257.683594 177.238281 270.78125 165.6875 272.683594 150.355469 C 272.722656 150.046875 272.722656 149.273438 272.722656 148.96875 C 272.671875 146.855469 271.53125 144.917969 269.714844 143.835938 Z M 269.714844 143.835938 " fill-opacity="1" fill-rule="nonzero"/><g clip-path="url(#539ab1e6db)"><path fill="#053262" d="M 227.09375 5.382812 C 189.863281 5.382812 159.578125 35.667969 159.578125 72.898438 C 159.578125 110.128906 189.863281 140.410156 227.09375 140.410156 C 264.324219 140.410156 294.609375 110.128906 294.609375 72.898438 C 294.609375 35.667969 264.324219 5.382812 227.09375 5.382812 Z M 268.265625 52.691406 L 219.164062 101.792969 C 217.960938 102.984375 216.390625 103.585938 214.820312 103.585938 C 213.25 103.585938 211.675781 102.984375 210.472656 101.792969 L 185.921875 77.242188 C 183.53125 74.847656 183.53125 70.957031 185.921875 68.5625 C 188.316406 66.171875 192.207031 66.171875 194.601562 68.5625 L 214.820312 88.769531 L 259.574219 44.011719 C 261.96875 41.621094 265.859375 41.621094 268.253906 44.011719 C 270.648438 46.40625 270.660156 50.285156 268.265625 52.691406 Z M 268.265625 52.691406 " fill-opacity="1" fill-rule="nonzero"/></g><g clip-path="url(#dfef1bce33)"><g clip-path="url(#2b450d315d)"><g transform="matrix(1, 0, 0, 1, 153, 0)"><g clip-path="url(#277314f73c)"><g clip-path="url(#35e389dfe8)"><g clip-path="url(#0c27605423)"><path fill="#ffffff" d="M 0.273438 0 L 147 0 L 147 146.726562 L 0.273438 146.726562 Z M 0.273438 0 " fill-opacity="1" fill-rule="nonzero"/></g></g></g></g></g></g><g clip-path="url(#6753217630)"><g clip-path="url(#d01ac51e4f)"><g transform="matrix(1, 0, 0, 1, 158, 5)"><g clip-path="url(#8641d8651a)"><g clip-path="url(#0a187d812b)"><g clip-path="url(#093b5c0838)"><path fill="#00bf63" d="M 0.65625 0.382812 L 136.617188 0.382812 L 136.617188 136.34375 L 0.65625 136.34375 Z M 0.65625 0.382812 " fill-opacity="1" fill-rule="nonzero"/></g></g></g></g></g></g><g clip-path="url(#a31a275e99)"><path fill="#ffffff" d="M 261.457031 42.824219 C 260.199219 42.859375 259.132812 43.328125 258.253906 44.230469 L 210.335938 92.152344 L 195.007812 76.820312 C 194.792969 76.597656 194.558594 76.398438 194.304688 76.21875 C 194.050781 76.042969 193.78125 75.894531 193.496094 75.769531 C 193.210938 75.648438 192.917969 75.554688 192.613281 75.488281 C 192.3125 75.425781 192.003906 75.390625 191.695312 75.390625 C 191.386719 75.386719 191.078125 75.414062 190.773438 75.472656 C 190.46875 75.53125 190.175781 75.617188 189.886719 75.734375 C 189.601562 75.851562 189.328125 75.996094 189.070312 76.167969 C 188.8125 76.339844 188.574219 76.535156 188.355469 76.753906 C 188.136719 76.972656 187.941406 77.210938 187.769531 77.46875 C 187.597656 77.726562 187.453125 78 187.335938 78.285156 C 187.21875 78.570312 187.132812 78.867188 187.074219 79.171875 C 187.015625 79.476562 186.988281 79.78125 186.992188 80.09375 C 186.996094 80.402344 187.027344 80.707031 187.09375 81.011719 C 187.15625 81.3125 187.25 81.609375 187.375 81.890625 C 187.496094 82.175781 187.648438 82.445312 187.824219 82.699219 C 188 82.953125 188.199219 83.1875 188.421875 83.402344 L 207.046875 102.023438 C 207.261719 102.242188 207.496094 102.433594 207.75 102.605469 C 208.003906 102.773438 208.273438 102.917969 208.554688 103.035156 C 208.839844 103.152344 209.128906 103.238281 209.429688 103.296875 C 209.730469 103.359375 210.03125 103.386719 210.335938 103.386719 C 210.640625 103.386719 210.945312 103.359375 211.246094 103.296875 C 211.542969 103.238281 211.835938 103.152344 212.117188 103.035156 C 212.402344 102.917969 212.667969 102.773438 212.921875 102.605469 C 213.175781 102.433594 213.414062 102.242188 213.628906 102.023438 L 264.839844 50.816406 C 265.175781 50.488281 265.457031 50.117188 265.679688 49.707031 C 265.90625 49.296875 266.0625 48.859375 266.15625 48.398438 C 266.25 47.941406 266.273438 47.476562 266.226562 47.007812 C 266.179688 46.542969 266.0625 46.09375 265.882812 45.660156 C 265.699219 45.230469 265.457031 44.835938 265.152344 44.476562 C 264.851562 44.117188 264.503906 43.8125 264.109375 43.558594 C 263.714844 43.304688 263.289062 43.113281 262.835938 42.988281 C 262.386719 42.863281 261.925781 42.808594 261.457031 42.824219 Z M 261.457031 42.824219 " fill-opacity="1" fill-rule="nonzero"/></g></svg>