<svg xmlns="http://www.w3.org/2000/svg" xmlns:xlink="http://www.w3.org/1999/xlink" width="96" zoomAndPan="magnify" viewBox="0 0 72 98.249997" height="131" preserveAspectRatio="xMidYMid meet" version="1.0"><defs><clipPath id="69e8168b29"><path d="M 6.023438 25 L 65.566406 25 L 65.566406 90 L 6.023438 90 Z M 6.023438 25 " clip-rule="nonzero"/></clipPath><clipPath id="525baa08ee"><path d="M 21 6.8125 L 51 6.8125 L 51 26 L 21 26 Z M 21 6.8125 " clip-rule="nonzero"/></clipPath></defs><g clip-path="url(#69e8168b29)"><path fill="#0066ff" d="M 57.933594 25.515625 L 13.355469 25.515625 C 9.324219 25.515625 6.054688 28.777344 6.054688 32.8125 L 6.054688 64.417969 C 12.398438 69.339844 20.878906 71.171875 28.929688 68.910156 C 40.078125 65.777344 47.839844 55.511719 47.804688 43.949219 C 47.804688 42.628906 48.867188 41.554688 50.183594 41.550781 C 50.195312 41.550781 50.195312 41.550781 50.195312 41.550781 C 51.515625 41.550781 52.582031 42.617188 52.582031 43.933594 C 52.625 57.636719 43.429688 69.804688 30.21875 73.507812 C 27.492188 74.28125 24.71875 74.648438 21.984375 74.648438 C 16.339844 74.648438 10.824219 73.085938 6.054688 70.207031 L 6.054688 82.648438 C 6.054688 86.679688 9.324219 89.949219 13.355469 89.949219 L 57.933594 89.949219 C 61.964844 89.949219 65.230469 86.679688 65.230469 82.648438 L 65.230469 32.8125 C 65.230469 28.777344 61.964844 25.515625 57.933594 25.515625 Z M 18.28125 54.761719 C 16.355469 55.300781 14.355469 54.183594 13.820312 52.257812 C 13.277344 50.332031 14.398438 48.335938 16.320312 47.789062 C 18.253906 47.253906 20.25 48.375 20.789062 50.300781 C 21.328125 52.222656 20.203125 54.222656 18.28125 54.761719 Z M 32.808594 50.6875 C 30.875 51.222656 28.878906 50.105469 28.339844 48.175781 C 27.800781 46.253906 28.925781 44.253906 30.847656 43.710938 C 32.773438 43.175781 34.773438 44.292969 35.316406 46.222656 C 35.851562 48.144531 34.726562 50.144531 32.808594 50.6875 Z M 32.808594 50.6875 " fill-opacity="1" fill-rule="nonzero"/></g><g clip-path="url(#525baa08ee)"><path fill="#000000" d="M 50.195312 25.507812 L 45.417969 25.507812 L 45.417969 21.367188 C 45.417969 15.976562 41.035156 11.589844 35.644531 11.589844 C 30.253906 11.589844 25.871094 15.976562 25.871094 21.367188 L 25.871094 25.507812 L 21.089844 25.507812 L 21.089844 21.367188 C 21.089844 13.339844 27.617188 6.8125 35.644531 6.8125 C 43.671875 6.8125 50.199219 13.339844 50.199219 21.367188 L 50.199219 25.507812 Z M 50.195312 25.507812 " fill-opacity="1" fill-rule="nonzero"/></g></svg>