<svg xmlns="http://www.w3.org/2000/svg" xmlns:xlink="http://www.w3.org/1999/xlink" width="477" zoomAndPan="magnify" viewBox="0 0 357.75 140.249994" height="187" preserveAspectRatio="xMidYMid meet" version="1.0"><defs><g/><clipPath id="18e468428c"><path d="M 0.828125 25 L 82.886719 25 L 82.886719 115.632812 L 0.828125 115.632812 Z M 0.828125 25 " clip-rule="nonzero"/></clipPath><clipPath id="a264a4b5e0"><path d="M 101 46 L 110 46 L 110 91.554688 L 101 91.554688 Z M 101 46 " clip-rule="nonzero"/></clipPath><clipPath id="83c94d04f0"><rect x="0" width="242" y="0" height="92"/></clipPath></defs><g clip-path="url(#18e468428c)"><path fill="#0066ff" d="M 72.785156 25.925781 L 10.988281 25.925781 C 5.398438 25.925781 0.871094 30.453125 0.871094 36.046875 L 0.871094 79.859375 C 9.664062 86.679688 21.421875 89.222656 32.578125 86.085938 C 48.035156 81.746094 58.796875 67.511719 58.746094 51.484375 C 58.746094 49.65625 60.222656 48.164062 62.046875 48.15625 C 62.058594 48.15625 62.058594 48.15625 62.058594 48.15625 C 63.886719 48.15625 65.367188 49.636719 65.367188 51.460938 C 65.429688 70.460938 52.683594 87.324219 34.367188 92.460938 C 30.585938 93.53125 26.742188 94.042969 22.949219 94.042969 C 15.125 94.042969 7.476562 91.875 0.871094 87.882812 L 0.871094 105.132812 C 0.871094 110.722656 5.398438 115.253906 10.988281 115.253906 L 72.785156 115.253906 C 78.375 115.253906 82.902344 110.722656 82.902344 105.132812 L 82.902344 36.046875 C 82.902344 30.453125 78.375 25.925781 72.785156 25.925781 Z M 17.820312 66.472656 C 15.148438 67.222656 12.378906 65.667969 11.632812 63 C 10.878906 60.328125 12.4375 57.5625 15.101562 56.808594 C 17.777344 56.066406 20.542969 57.617188 21.292969 60.289062 C 22.042969 62.953125 20.484375 65.722656 17.820312 66.472656 Z M 37.953125 60.824219 C 35.277344 61.566406 32.511719 60.015625 31.761719 57.34375 C 31.011719 54.679688 32.570312 51.910156 35.234375 51.152344 C 37.90625 50.410156 40.679688 51.964844 41.433594 54.632812 C 42.175781 57.296875 40.617188 60.070312 37.953125 60.824219 Z M 37.953125 60.824219 " fill-opacity="1" fill-rule="nonzero"/></g><path fill="#ffffff" d="M 62.058594 25.921875 L 55.4375 25.921875 L 55.4375 20.175781 C 55.4375 12.703125 49.359375 6.625 41.886719 6.625 C 34.414062 6.625 28.335938 12.703125 28.335938 20.175781 L 28.335938 25.921875 L 21.710938 25.921875 L 21.710938 20.175781 C 21.710938 9.050781 30.757812 0 41.886719 0 C 53.015625 0 62.0625 9.050781 62.0625 20.175781 L 62.0625 25.921875 Z M 62.058594 25.921875 " fill-opacity="1" fill-rule="nonzero"/><g transform="matrix(1, 0, 0, 1, 98, 29)"><g clip-path="url(#83c94d04f0)"><g fill="#f8f8f8" fill-opacity="1"><g transform="translate(0.952675, 35.745076)"><g><path d="M 26.328125 0 L 22.90625 -10.03125 L 9.078125 -10.03125 L 5.46875 0 L 0.671875 0 L 13.640625 -34.484375 L 18.921875 -34.484375 L 31.40625 0 Z M 21.234375 -14.171875 L 16.140625 -29.34375 L 16.046875 -29.34375 L 10.515625 -14.171875 Z M 21.234375 -14.171875 "/></g></g></g><g fill="#f8f8f8" fill-opacity="1"><g transform="translate(32.985446, 35.745076)"><g><path d="M 12.34375 -2.9375 C 14.519531 -2.9375 16.21875 -3.703125 17.4375 -5.234375 C 18.65625 -6.773438 19.265625 -8.875 19.265625 -11.53125 L 19.265625 -25.125 L 23.484375 -25.125 L 23.484375 0 L 19.5 0 L 19.5 -3.65625 L 19.40625 -3.75 C 18.445312 -2.175781 17.359375 -1.035156 16.140625 -0.328125 C 14.921875 0.367188 13.351562 0.71875 11.4375 0.71875 C 8.9375 0.71875 6.945312 0.0390625 5.46875 -1.3125 C 4 -2.675781 3.265625 -4.546875 3.265625 -6.921875 L 3.265625 -25.125 L 7.5 -25.125 L 7.5 -8.265625 C 7.5 -6.597656 7.910156 -5.289062 8.734375 -4.34375 C 9.566406 -3.40625 10.769531 -2.9375 12.34375 -2.9375 Z M 12.34375 -2.9375 "/></g></g></g><g fill="#f8f8f8" fill-opacity="1"><g transform="translate(59.687419, 35.745076)"><g><path d="M 12.34375 -25.125 L 12.34375 -21.609375 L 8.3125 -21.609375 L 8.3125 -5.1875 C 8.3125 -3.9375 9.09375 -3.3125 10.65625 -3.3125 L 12.34375 -3.3125 L 12.34375 0 C 10.644531 0.226562 9.570312 0.34375 9.125 0.34375 C 7.332031 0.34375 6.039062 -0.0859375 5.25 -0.953125 C 4.46875 -1.816406 4.078125 -3.132812 4.078125 -4.90625 L 4.078125 -21.609375 L 0.671875 -21.609375 L 0.671875 -25.125 L 4.078125 -25.125 L 4.078125 -32.140625 L 8.3125 -32.140625 L 8.3125 -25.125 Z M 12.34375 -25.125 "/></g></g></g><g fill="#f8f8f8" fill-opacity="1"><g transform="translate(73.038406, 35.745076)"><g><path d="M 13.40625 0.671875 C 10.96875 0.671875 8.859375 0.0820312 7.078125 -1.09375 C 5.304688 -2.28125 3.960938 -3.875 3.046875 -5.875 C 2.140625 -7.882812 1.6875 -10.117188 1.6875 -12.578125 C 1.6875 -15.109375 2.15625 -17.375 3.09375 -19.375 C 4.039062 -21.375 5.394531 -22.953125 7.15625 -24.109375 C 8.914062 -25.265625 10.984375 -25.84375 13.359375 -25.84375 C 15.785156 -25.84375 17.878906 -25.25 19.640625 -24.0625 C 21.398438 -22.875 22.738281 -21.269531 23.65625 -19.25 C 24.570312 -17.238281 25.03125 -15.015625 25.03125 -12.578125 C 25.03125 -10.117188 24.5625 -7.867188 23.625 -5.828125 C 22.695312 -3.796875 21.359375 -2.203125 19.609375 -1.046875 C 17.867188 0.0976562 15.800781 0.671875 13.40625 0.671875 Z M 20.65625 -12.4375 C 20.65625 -15.289062 20.03125 -17.628906 18.78125 -19.453125 C 17.53125 -21.273438 15.703125 -22.1875 13.296875 -22.1875 C 10.992188 -22.1875 9.207031 -21.289062 7.9375 -19.5 C 6.675781 -17.707031 6.046875 -15.398438 6.046875 -12.578125 C 6.046875 -9.828125 6.675781 -7.539062 7.9375 -5.71875 C 9.207031 -3.894531 11.015625 -2.984375 13.359375 -2.984375 C 15.722656 -2.984375 17.53125 -3.894531 18.78125 -5.71875 C 20.03125 -7.539062 20.65625 -9.78125 20.65625 -12.4375 Z M 20.65625 -12.4375 "/></g></g></g><g fill="#f8f8f8" fill-opacity="1"><g transform="translate(99.740379, 35.745076)"><g><path d="M 21.46875 -21.765625 C 22.8125 -23.359375 24.039062 -24.4375 25.15625 -25 C 26.28125 -25.5625 27.550781 -25.84375 28.96875 -25.84375 C 31.363281 -25.84375 33.289062 -25.097656 34.75 -23.609375 C 36.207031 -22.117188 36.9375 -20.109375 36.9375 -17.578125 L 36.9375 0 L 32.703125 0 L 32.703125 -16.140625 C 32.703125 -18.117188 32.34375 -19.597656 31.625 -20.578125 C 30.90625 -21.554688 29.710938 -22.046875 28.046875 -22.046875 C 26.960938 -22.046875 25.972656 -21.734375 25.078125 -21.109375 C 24.179688 -20.484375 23.46875 -19.648438 22.9375 -18.609375 C 22.40625 -17.566406 22.140625 -16.421875 22.140625 -15.171875 L 22.140625 0 L 17.921875 0 L 17.921875 -17.390625 C 17.921875 -18.828125 17.570312 -19.960938 16.875 -20.796875 C 16.1875 -21.628906 15.222656 -22.046875 13.984375 -22.046875 C 11.992188 -22.046875 10.390625 -21.300781 9.171875 -19.8125 C 7.953125 -18.320312 7.34375 -16.359375 7.34375 -13.921875 L 7.34375 0 L 3.125 0 L 3.125 -25.125 L 7.109375 -25.125 L 7.109375 -21.5625 L 7.203125 -21.5625 C 9.128906 -24.414062 11.660156 -25.84375 14.796875 -25.84375 C 16.234375 -25.84375 17.535156 -25.515625 18.703125 -24.859375 C 19.878906 -24.203125 20.800781 -23.171875 21.46875 -21.765625 Z M 21.46875 -21.765625 "/></g></g></g><g fill="#f8f8f8" fill-opacity="1"><g transform="translate(139.745322, 35.745076)"><g><path d="M 24.0625 -2.875 C 24.507812 -2.875 24.972656 -2.941406 25.453125 -3.078125 L 25.453125 0 C 24.492188 0.320312 23.710938 0.484375 23.109375 0.484375 C 21.722656 0.484375 20.65625 0.1875 19.90625 -0.40625 C 19.15625 -1 18.75 -1.984375 18.6875 -3.359375 C 16.28125 -0.640625 13.269531 0.71875 9.65625 0.71875 C 7.3125 0.71875 5.40625 0.046875 3.9375 -1.296875 C 2.46875 -2.640625 1.734375 -4.382812 1.734375 -6.53125 C 1.734375 -8.707031 2.375 -10.484375 3.65625 -11.859375 C 4.9375 -13.234375 6.820312 -14.082031 9.3125 -14.40625 L 16.328125 -15.28125 C 17.097656 -15.375 17.660156 -15.644531 18.015625 -16.09375 C 18.367188 -16.539062 18.546875 -17.242188 18.546875 -18.203125 C 18.546875 -20.953125 16.570312 -22.328125 12.625 -22.328125 C 10.894531 -22.328125 9.554688 -21.941406 8.609375 -21.171875 C 7.671875 -20.410156 7.09375 -19.179688 6.875 -17.484375 L 2.984375 -17.484375 C 3.046875 -20.171875 3.925781 -22.234375 5.625 -23.671875 C 7.320312 -25.117188 9.816406 -25.84375 13.109375 -25.84375 C 15.929688 -25.84375 18.226562 -25.25 20 -24.0625 C 21.78125 -22.875 22.671875 -21.113281 22.671875 -18.78125 L 22.671875 -4.28125 C 22.671875 -3.863281 22.78125 -3.523438 23 -3.265625 C 23.226562 -3.003906 23.582031 -2.875 24.0625 -2.875 Z M 18.4375 -8.6875 L 18.4375 -12.828125 C 18.0625 -12.503906 17.445312 -12.242188 16.59375 -12.046875 C 15.75 -11.859375 13.835938 -11.554688 10.859375 -11.140625 C 9.316406 -10.921875 8.132812 -10.488281 7.3125 -9.84375 C 6.5 -9.207031 6.09375 -8.296875 6.09375 -7.109375 C 6.09375 -4.222656 7.613281 -2.78125 10.65625 -2.78125 C 11.96875 -2.78125 13.222656 -3.046875 14.421875 -3.578125 C 15.628906 -4.109375 16.597656 -4.828125 17.328125 -5.734375 C 18.066406 -6.648438 18.4375 -7.632812 18.4375 -8.6875 Z M 18.4375 -8.6875 "/></g></g></g><g fill="#f8f8f8" fill-opacity="1"><g transform="translate(166.447296, 35.745076)"><g><path d="M 12.34375 -25.125 L 12.34375 -21.609375 L 8.3125 -21.609375 L 8.3125 -5.1875 C 8.3125 -3.9375 9.09375 -3.3125 10.65625 -3.3125 L 12.34375 -3.3125 L 12.34375 0 C 10.644531 0.226562 9.570312 0.34375 9.125 0.34375 C 7.332031 0.34375 6.039062 -0.0859375 5.25 -0.953125 C 4.46875 -1.816406 4.078125 -3.132812 4.078125 -4.90625 L 4.078125 -21.609375 L 0.671875 -21.609375 L 0.671875 -25.125 L 4.078125 -25.125 L 4.078125 -32.140625 L 8.3125 -32.140625 L 8.3125 -25.125 Z M 12.34375 -25.125 "/></g></g></g><g fill="#f8f8f8" fill-opacity="1"><g transform="translate(179.798283, 35.745076)"><g><path d="M 3.21875 -29.6875 L 3.21875 -34.484375 L 7.4375 -34.484375 L 7.4375 -29.6875 Z M 3.21875 0 L 3.21875 -25.125 L 7.4375 -25.125 L 7.4375 0 Z M 3.21875 0 "/></g></g></g><g fill="#f8f8f8" fill-opacity="1"><g transform="translate(190.459862, 35.745076)"><g><path d="M 7.109375 -3.5 L 22.53125 -3.5 L 22.53125 0 L 1.484375 0 L 1.484375 -3.3125 L 16.625 -21.609375 L 2.640625 -21.609375 L 2.640625 -25.125 L 22.09375 -25.125 L 22.09375 -21.65625 Z M 7.109375 -3.5 "/></g></g></g><g fill="#f8f8f8" fill-opacity="1"><g transform="translate(214.472428, 35.745076)"><g><path d="M 24.0625 -2.875 C 24.507812 -2.875 24.972656 -2.941406 25.453125 -3.078125 L 25.453125 0 C 24.492188 0.320312 23.710938 0.484375 23.109375 0.484375 C 21.722656 0.484375 20.65625 0.1875 19.90625 -0.40625 C 19.15625 -1 18.75 -1.984375 18.6875 -3.359375 C 16.28125 -0.640625 13.269531 0.71875 9.65625 0.71875 C 7.3125 0.71875 5.40625 0.046875 3.9375 -1.296875 C 2.46875 -2.640625 1.734375 -4.382812 1.734375 -6.53125 C 1.734375 -8.707031 2.375 -10.484375 3.65625 -11.859375 C 4.9375 -13.234375 6.820312 -14.082031 9.3125 -14.40625 L 16.328125 -15.28125 C 17.097656 -15.375 17.660156 -15.644531 18.015625 -16.09375 C 18.367188 -16.539062 18.546875 -17.242188 18.546875 -18.203125 C 18.546875 -20.953125 16.570312 -22.328125 12.625 -22.328125 C 10.894531 -22.328125 9.554688 -21.941406 8.609375 -21.171875 C 7.671875 -20.410156 7.09375 -19.179688 6.875 -17.484375 L 2.984375 -17.484375 C 3.046875 -20.171875 3.925781 -22.234375 5.625 -23.671875 C 7.320312 -25.117188 9.816406 -25.84375 13.109375 -25.84375 C 15.929688 -25.84375 18.226562 -25.25 20 -24.0625 C 21.78125 -22.875 22.671875 -21.113281 22.671875 -18.78125 L 22.671875 -4.28125 C 22.671875 -3.863281 22.78125 -3.523438 23 -3.265625 C 23.226562 -3.003906 23.582031 -2.875 24.0625 -2.875 Z M 18.4375 -8.6875 L 18.4375 -12.828125 C 18.0625 -12.503906 17.445312 -12.242188 16.59375 -12.046875 C 15.75 -11.859375 13.835938 -11.554688 10.859375 -11.140625 C 9.316406 -10.921875 8.132812 -10.488281 7.3125 -9.84375 C 6.5 -9.207031 6.09375 -8.296875 6.09375 -7.109375 C 6.09375 -4.222656 7.613281 -2.78125 10.65625 -2.78125 C 11.96875 -2.78125 13.222656 -3.046875 14.421875 -3.578125 C 15.628906 -4.109375 16.597656 -4.828125 17.328125 -5.734375 C 18.066406 -6.648438 18.4375 -7.632812 18.4375 -8.6875 Z M 18.4375 -8.6875 "/></g></g></g><g fill="#f8f8f8" fill-opacity="1"><g transform="translate(0.952675, 81.142389)"><g><path d="M 16.09375 -5.09375 L 25.84375 -34.484375 L 31.078125 -34.484375 L 18.484375 0 L 13.546875 0 L 0.953125 -34.484375 L 6.140625 -34.484375 L 16 -5.09375 Z M 16.09375 -5.09375 "/></g></g></g><g fill="#f8f8f8" fill-opacity="1"><g transform="translate(32.985446, 81.142389)"><g><path d="M 24.0625 -2.875 C 24.507812 -2.875 24.972656 -2.941406 25.453125 -3.078125 L 25.453125 0 C 24.492188 0.320312 23.710938 0.484375 23.109375 0.484375 C 21.722656 0.484375 20.65625 0.1875 19.90625 -0.40625 C 19.15625 -1 18.75 -1.984375 18.6875 -3.359375 C 16.28125 -0.640625 13.269531 0.71875 9.65625 0.71875 C 7.3125 0.71875 5.40625 0.046875 3.9375 -1.296875 C 2.46875 -2.640625 1.734375 -4.382812 1.734375 -6.53125 C 1.734375 -8.707031 2.375 -10.484375 3.65625 -11.859375 C 4.9375 -13.234375 6.820312 -14.082031 9.3125 -14.40625 L 16.328125 -15.28125 C 17.097656 -15.375 17.660156 -15.644531 18.015625 -16.09375 C 18.367188 -16.539062 18.546875 -17.242188 18.546875 -18.203125 C 18.546875 -20.953125 16.570312 -22.328125 12.625 -22.328125 C 10.894531 -22.328125 9.554688 -21.941406 8.609375 -21.171875 C 7.671875 -20.410156 7.09375 -19.179688 6.875 -17.484375 L 2.984375 -17.484375 C 3.046875 -20.171875 3.925781 -22.234375 5.625 -23.671875 C 7.320312 -25.117188 9.816406 -25.84375 13.109375 -25.84375 C 15.929688 -25.84375 18.226562 -25.25 20 -24.0625 C 21.78125 -22.875 22.671875 -21.113281 22.671875 -18.78125 L 22.671875 -4.28125 C 22.671875 -3.863281 22.78125 -3.523438 23 -3.265625 C 23.226562 -3.003906 23.582031 -2.875 24.0625 -2.875 Z M 18.4375 -8.6875 L 18.4375 -12.828125 C 18.0625 -12.503906 17.445312 -12.242188 16.59375 -12.046875 C 15.75 -11.859375 13.835938 -11.554688 10.859375 -11.140625 C 9.316406 -10.921875 8.132812 -10.488281 7.3125 -9.84375 C 6.5 -9.207031 6.09375 -8.296875 6.09375 -7.109375 C 6.09375 -4.222656 7.613281 -2.78125 10.65625 -2.78125 C 11.96875 -2.78125 13.222656 -3.046875 14.421875 -3.578125 C 15.628906 -4.109375 16.597656 -4.828125 17.328125 -5.734375 C 18.066406 -6.648438 18.4375 -7.632812 18.4375 -8.6875 Z M 18.4375 -8.6875 "/></g></g></g><g fill="#f8f8f8" fill-opacity="1"><g transform="translate(59.687419, 81.142389)"><g><path d="M 7.921875 -14.359375 L 7.921875 0 L 3.703125 0 L 3.703125 -25.125 L 7.6875 -25.125 L 7.6875 -20.9375 L 7.78125 -20.9375 C 8.675781 -22.507812 9.691406 -23.71875 10.828125 -24.5625 C 11.960938 -25.414062 13.300781 -25.84375 14.84375 -25.84375 C 15.320312 -25.84375 15.691406 -25.796875 15.953125 -25.703125 L 15.953125 -21.328125 L 14.3125 -21.328125 C 13.257812 -21.328125 12.242188 -21.078125 11.265625 -20.578125 C 10.285156 -20.085938 9.484375 -19.320312 8.859375 -18.28125 C 8.234375 -17.238281 7.921875 -15.929688 7.921875 -14.359375 Z M 7.921875 -14.359375 "/></g></g></g><g fill="#f8f8f8" fill-opacity="1"><g transform="translate(75.679796, 81.142389)"><g><path d="M 13.734375 -2.9375 C 14.828125 -2.9375 15.851562 -3.164062 16.8125 -3.625 C 17.769531 -4.09375 18.550781 -4.707031 19.15625 -5.46875 C 19.769531 -6.238281 20.125 -7.039062 20.21875 -7.875 L 24.453125 -7.875 C 23.835938 -5.1875 22.601562 -3.082031 20.75 -1.5625 C 18.894531 -0.0390625 16.445312 0.71875 13.40625 0.71875 C 10.96875 0.71875 8.882812 0.175781 7.15625 -0.90625 C 5.425781 -2 4.117188 -3.5 3.234375 -5.40625 C 2.359375 -7.3125 1.921875 -9.476562 1.921875 -11.90625 C 1.921875 -16.164062 2.96875 -19.550781 5.0625 -22.0625 C 7.164062 -24.582031 10.140625 -25.84375 13.984375 -25.84375 C 17.441406 -25.84375 20.101562 -24.5625 21.96875 -22 C 23.84375 -19.4375 24.78125 -15.832031 24.78125 -11.1875 L 6.4375 -11.1875 C 6.4375 -8.5 7.050781 -6.453125 8.28125 -5.046875 C 9.519531 -3.640625 11.335938 -2.9375 13.734375 -2.9375 Z M 13.40625 -22.046875 C 12.1875 -22.046875 11.046875 -21.707031 9.984375 -21.03125 C 8.929688 -20.363281 8.078125 -19.453125 7.421875 -18.296875 C 6.765625 -17.148438 6.4375 -15.898438 6.4375 -14.546875 L 20.40625 -14.546875 C 20.03125 -19.546875 17.695312 -22.046875 13.40625 -22.046875 Z M 13.40625 -22.046875 "/></g></g></g><g clip-path="url(#a264a4b5e0)"><g fill="#f8f8f8" fill-opacity="1"><g transform="translate(102.38177, 81.142389)"><g><path d="M 3.21875 -29.6875 L 3.21875 -34.484375 L 7.4375 -34.484375 L 7.4375 -29.6875 Z M 1.015625 10.09375 C 0.492188 10.09375 -0.0976562 10.039062 -0.765625 9.9375 L -0.765625 6.296875 L 0.234375 6.296875 C 1.097656 6.296875 1.726562 6.222656 2.125 6.078125 C 2.53125 5.929688 2.8125 5.65625 2.96875 5.25 C 3.132812 4.851562 3.21875 4.238281 3.21875 3.40625 L 3.21875 -25.125 L 7.4375 -25.125 L 7.4375 4.171875 C 7.4375 8.117188 5.296875 10.09375 1.015625 10.09375 Z M 1.015625 10.09375 "/></g></g></g></g><g fill="#f8f8f8" fill-opacity="1"><g transform="translate(113.043349, 81.142389)"><g><path d="M 13.40625 0.671875 C 10.96875 0.671875 8.859375 0.0820312 7.078125 -1.09375 C 5.304688 -2.28125 3.960938 -3.875 3.046875 -5.875 C 2.140625 -7.882812 1.6875 -10.117188 1.6875 -12.578125 C 1.6875 -15.109375 2.15625 -17.375 3.09375 -19.375 C 4.039062 -21.375 5.394531 -22.953125 7.15625 -24.109375 C 8.914062 -25.265625 10.984375 -25.84375 13.359375 -25.84375 C 15.785156 -25.84375 17.878906 -25.25 19.640625 -24.0625 C 21.398438 -22.875 22.738281 -21.269531 23.65625 -19.25 C 24.570312 -17.238281 25.03125 -15.015625 25.03125 -12.578125 C 25.03125 -10.117188 24.5625 -7.867188 23.625 -5.828125 C 22.695312 -3.796875 21.359375 -2.203125 19.609375 -1.046875 C 17.867188 0.0976562 15.800781 0.671875 13.40625 0.671875 Z M 20.65625 -12.4375 C 20.65625 -15.289062 20.03125 -17.628906 18.78125 -19.453125 C 17.53125 -21.273438 15.703125 -22.1875 13.296875 -22.1875 C 10.992188 -22.1875 9.207031 -21.289062 7.9375 -19.5 C 6.675781 -17.707031 6.046875 -15.398438 6.046875 -12.578125 C 6.046875 -9.828125 6.675781 -7.539062 7.9375 -5.71875 C 9.207031 -3.894531 11.015625 -2.984375 13.359375 -2.984375 C 15.722656 -2.984375 17.53125 -3.894531 18.78125 -5.71875 C 20.03125 -7.539062 20.65625 -9.78125 20.65625 -12.4375 Z M 20.65625 -12.4375 "/></g></g></g></g></g></svg>