<svg xmlns="http://www.w3.org/2000/svg" xmlns:xlink="http://www.w3.org/1999/xlink" width="345" zoomAndPan="magnify" viewBox="0 0 258.75 101.249998" height="135" preserveAspectRatio="xMidYMid meet" version="1.0"><defs><g/><clipPath id="e80fe2d10b"><path d="M 0.828125 18 L 60.386719 18 L 60.386719 83.382812 L 0.828125 83.382812 Z M 0.828125 18 " clip-rule="nonzero"/></clipPath></defs><g clip-path="url(#e80fe2d10b)"><path fill="#0066ff" d="M 52.75 18.707031 L 8.160156 18.707031 C 4.128906 18.707031 0.859375 21.972656 0.859375 26.007812 L 0.859375 57.621094 C 7.207031 62.539062 15.6875 64.375 23.738281 62.113281 C 34.890625 58.980469 42.65625 48.710938 42.621094 37.148438 C 42.621094 35.828125 43.683594 34.75 45 34.746094 C 45.007812 34.746094 45.007812 34.746094 45.007812 34.746094 C 46.328125 34.746094 47.398438 35.8125 47.398438 37.128906 C 47.441406 50.839844 38.242188 63.007812 25.027344 66.710938 C 22.300781 67.484375 19.527344 67.855469 16.792969 67.855469 C 11.148438 67.855469 5.628906 66.289062 0.859375 63.410156 L 0.859375 75.855469 C 0.859375 79.886719 4.128906 83.15625 8.160156 83.15625 L 52.75 83.15625 C 56.78125 83.15625 60.050781 79.886719 60.050781 75.855469 L 60.050781 26.007812 C 60.050781 21.972656 56.78125 18.707031 52.75 18.707031 Z M 13.089844 47.960938 C 11.164062 48.503906 9.164062 47.382812 8.628906 45.457031 C 8.082031 43.527344 9.207031 41.53125 11.128906 40.988281 C 13.058594 40.453125 15.054688 41.570312 15.597656 43.5 C 16.136719 45.421875 15.011719 47.421875 13.089844 47.960938 Z M 27.617188 43.886719 C 25.6875 44.421875 23.691406 43.300781 23.152344 41.375 C 22.609375 39.453125 23.734375 37.453125 25.65625 36.910156 C 27.582031 36.371094 29.582031 37.492188 30.128906 39.417969 C 30.664062 41.339844 29.539062 43.339844 27.617188 43.886719 Z M 27.617188 43.886719 " fill-opacity="1" fill-rule="nonzero"/></g><path fill="#000000" d="M 45.007812 18.703125 L 40.230469 18.703125 L 40.230469 14.558594 C 40.230469 9.167969 35.847656 4.78125 30.457031 4.78125 C 25.0625 4.78125 20.679688 9.167969 20.679688 14.558594 L 20.679688 18.703125 L 15.898438 18.703125 L 15.898438 14.558594 C 15.898438 6.527344 22.425781 0 30.457031 0 C 38.484375 0 45.011719 6.527344 45.011719 14.558594 L 45.011719 18.703125 Z M 45.007812 18.703125 " fill-opacity="1" fill-rule="nonzero"/><g fill="#000000" fill-opacity="1"><g transform="translate(71.631682, 46.718124)"><g><path d="M 18.984375 0 L 16.53125 -7.25 L 6.546875 -7.25 L 3.953125 0 L 0.484375 0 L 9.84375 -24.890625 L 13.65625 -24.890625 L 22.671875 0 Z M 15.3125 -10.21875 L 11.640625 -21.171875 L 11.578125 -21.171875 L 7.59375 -10.21875 Z M 15.3125 -10.21875 "/></g></g></g><g fill="#000000" fill-opacity="1"><g transform="translate(94.745577, 46.718124)"><g><path d="M 8.90625 -2.109375 C 10.476562 -2.109375 11.703125 -2.660156 12.578125 -3.765625 C 13.453125 -4.878906 13.890625 -6.394531 13.890625 -8.3125 L 13.890625 -18.125 L 16.953125 -18.125 L 16.953125 0 L 14.078125 0 L 14.078125 -2.640625 L 14 -2.703125 C 13.3125 -1.566406 12.523438 -0.742188 11.640625 -0.234375 C 10.765625 0.265625 9.632812 0.515625 8.25 0.515625 C 6.445312 0.515625 5.015625 0.0234375 3.953125 -0.953125 C 2.890625 -1.929688 2.359375 -3.273438 2.359375 -4.984375 L 2.359375 -18.125 L 5.40625 -18.125 L 5.40625 -5.953125 C 5.40625 -4.753906 5.703125 -3.8125 6.296875 -3.125 C 6.898438 -2.445312 7.769531 -2.109375 8.90625 -2.109375 Z M 8.90625 -2.109375 "/></g></g></g><g fill="#000000" fill-opacity="1"><g transform="translate(114.012926, 46.718124)"><g><path d="M 8.90625 -18.125 L 8.90625 -15.59375 L 6 -15.59375 L 6 -3.75 C 6 -2.84375 6.5625 -2.390625 7.6875 -2.390625 L 8.90625 -2.390625 L 8.90625 0 C 7.675781 0.164062 6.898438 0.25 6.578125 0.25 C 5.285156 0.25 4.359375 -0.0625 3.796875 -0.6875 C 3.234375 -1.3125 2.953125 -2.257812 2.953125 -3.53125 L 2.953125 -15.59375 L 0.484375 -15.59375 L 0.484375 -18.125 L 2.953125 -18.125 L 2.953125 -23.1875 L 6 -23.1875 L 6 -18.125 Z M 8.90625 -18.125 "/></g></g></g><g fill="#000000" fill-opacity="1"><g transform="translate(123.646601, 46.718124)"><g><path d="M 9.671875 0.484375 C 7.910156 0.484375 6.390625 0.0546875 5.109375 -0.796875 C 3.828125 -1.648438 2.859375 -2.796875 2.203125 -4.234375 C 1.546875 -5.679688 1.21875 -7.296875 1.21875 -9.078125 C 1.21875 -10.898438 1.554688 -12.535156 2.234375 -13.984375 C 2.910156 -15.429688 3.882812 -16.566406 5.15625 -17.390625 C 6.425781 -18.222656 7.921875 -18.640625 9.640625 -18.640625 C 11.390625 -18.640625 12.898438 -18.210938 14.171875 -17.359375 C 15.441406 -16.503906 16.40625 -15.347656 17.0625 -13.890625 C 17.726562 -12.441406 18.0625 -10.835938 18.0625 -9.078125 C 18.0625 -7.296875 17.722656 -5.671875 17.046875 -4.203125 C 16.378906 -2.742188 15.414062 -1.597656 14.15625 -0.765625 C 12.894531 0.0664062 11.398438 0.484375 9.671875 0.484375 Z M 14.90625 -8.96875 C 14.90625 -11.03125 14.453125 -12.71875 13.546875 -14.03125 C 12.648438 -15.351562 11.332031 -16.015625 9.59375 -16.015625 C 7.9375 -16.015625 6.648438 -15.363281 5.734375 -14.0625 C 4.816406 -12.769531 4.359375 -11.109375 4.359375 -9.078125 C 4.359375 -7.085938 4.816406 -5.4375 5.734375 -4.125 C 6.648438 -2.8125 7.953125 -2.15625 9.640625 -2.15625 C 11.347656 -2.15625 12.648438 -2.8125 13.546875 -4.125 C 14.453125 -5.4375 14.90625 -7.050781 14.90625 -8.96875 Z M 14.90625 -8.96875 "/></g></g></g><g fill="#000000" fill-opacity="1"><g transform="translate(142.913951, 46.718124)"><g><path d="M 15.484375 -15.703125 C 16.460938 -16.859375 17.351562 -17.632812 18.15625 -18.03125 C 18.96875 -18.4375 19.878906 -18.640625 20.890625 -18.640625 C 22.628906 -18.640625 24.023438 -18.101562 25.078125 -17.03125 C 26.128906 -15.957031 26.65625 -14.507812 26.65625 -12.6875 L 26.65625 0 L 23.59375 0 L 23.59375 -11.640625 C 23.59375 -13.078125 23.332031 -14.144531 22.8125 -14.84375 C 22.300781 -15.550781 21.441406 -15.90625 20.234375 -15.90625 C 19.453125 -15.90625 18.738281 -15.679688 18.09375 -15.234375 C 17.445312 -14.785156 16.929688 -14.179688 16.546875 -13.421875 C 16.160156 -12.671875 15.96875 -11.847656 15.96875 -10.953125 L 15.96875 0 L 12.921875 0 L 12.921875 -12.546875 C 12.921875 -13.585938 12.671875 -14.40625 12.171875 -15 C 11.679688 -15.601562 10.984375 -15.90625 10.078125 -15.90625 C 8.648438 -15.90625 7.492188 -15.367188 6.609375 -14.296875 C 5.734375 -13.222656 5.296875 -11.804688 5.296875 -10.046875 L 5.296875 0 L 2.25 0 L 2.25 -18.125 L 5.125 -18.125 L 5.125 -15.5625 L 5.203125 -15.5625 C 6.585938 -17.613281 8.410156 -18.640625 10.671875 -18.640625 C 11.710938 -18.640625 12.65625 -18.398438 13.5 -17.921875 C 14.34375 -17.453125 15.003906 -16.710938 15.484375 -15.703125 Z M 15.484375 -15.703125 "/></g></g></g><g fill="#000000" fill-opacity="1"><g transform="translate(171.780328, 46.718124)"><g><path d="M 17.359375 -2.078125 C 17.679688 -2.078125 18.019531 -2.125 18.375 -2.21875 L 18.375 0 C 17.675781 0.226562 17.109375 0.34375 16.671875 0.34375 C 15.671875 0.34375 14.898438 0.128906 14.359375 -0.296875 C 13.816406 -0.722656 13.523438 -1.429688 13.484375 -2.421875 C 11.742188 -0.460938 9.570312 0.515625 6.96875 0.515625 C 5.28125 0.515625 3.90625 0.03125 2.84375 -0.9375 C 1.78125 -1.90625 1.25 -3.164062 1.25 -4.71875 C 1.25 -6.28125 1.707031 -7.554688 2.625 -8.546875 C 3.550781 -9.546875 4.914062 -10.160156 6.71875 -10.390625 L 11.78125 -11.015625 C 12.332031 -11.085938 12.734375 -11.285156 12.984375 -11.609375 C 13.242188 -11.929688 13.375 -12.441406 13.375 -13.140625 C 13.375 -15.117188 11.953125 -16.109375 9.109375 -16.109375 C 7.867188 -16.109375 6.90625 -15.832031 6.21875 -15.28125 C 5.539062 -14.726562 5.117188 -13.835938 4.953125 -12.609375 L 2.15625 -12.609375 C 2.195312 -14.554688 2.828125 -16.046875 4.046875 -17.078125 C 5.273438 -18.117188 7.082031 -18.640625 9.46875 -18.640625 C 11.5 -18.640625 13.15625 -18.210938 14.4375 -17.359375 C 15.71875 -16.503906 16.359375 -15.234375 16.359375 -13.546875 L 16.359375 -3.078125 C 16.359375 -2.785156 16.4375 -2.546875 16.59375 -2.359375 C 16.757812 -2.171875 17.015625 -2.078125 17.359375 -2.078125 Z M 13.3125 -6.265625 L 13.3125 -9.25 C 13.03125 -9.019531 12.582031 -8.832031 11.96875 -8.6875 C 11.363281 -8.550781 9.984375 -8.335938 7.828125 -8.046875 C 6.722656 -7.878906 5.875 -7.5625 5.28125 -7.09375 C 4.695312 -6.632812 4.40625 -5.976562 4.40625 -5.125 C 4.40625 -3.050781 5.5 -2.015625 7.6875 -2.015625 C 8.632812 -2.015625 9.539062 -2.203125 10.40625 -2.578125 C 11.28125 -2.960938 11.984375 -3.484375 12.515625 -4.140625 C 13.046875 -4.796875 13.3125 -5.503906 13.3125 -6.265625 Z M 13.3125 -6.265625 "/></g></g></g><g fill="#000000" fill-opacity="1"><g transform="translate(191.047678, 46.718124)"><g><path d="M 8.90625 -18.125 L 8.90625 -15.59375 L 6 -15.59375 L 6 -3.75 C 6 -2.84375 6.5625 -2.390625 7.6875 -2.390625 L 8.90625 -2.390625 L 8.90625 0 C 7.675781 0.164062 6.898438 0.25 6.578125 0.25 C 5.285156 0.25 4.359375 -0.0625 3.796875 -0.6875 C 3.234375 -1.3125 2.953125 -2.257812 2.953125 -3.53125 L 2.953125 -15.59375 L 0.484375 -15.59375 L 0.484375 -18.125 L 2.953125 -18.125 L 2.953125 -23.1875 L 6 -23.1875 L 6 -18.125 Z M 8.90625 -18.125 "/></g></g></g><g fill="#000000" fill-opacity="1"><g transform="translate(200.681353, 46.718124)"><g><path d="M 2.328125 -21.421875 L 2.328125 -24.890625 L 5.375 -24.890625 L 5.375 -21.421875 Z M 2.328125 0 L 2.328125 -18.125 L 5.375 -18.125 L 5.375 0 Z M 2.328125 0 "/></g></g></g><g fill="#000000" fill-opacity="1"><g transform="translate(208.374431, 46.718124)"><g><path d="M 5.125 -2.53125 L 16.25 -2.53125 L 16.25 0 L 1.078125 0 L 1.078125 -2.390625 L 11.984375 -15.59375 L 1.90625 -15.59375 L 1.90625 -18.125 L 15.9375 -18.125 L 15.9375 -15.625 Z M 5.125 -2.53125 "/></g></g></g><g fill="#000000" fill-opacity="1"><g transform="translate(225.701185, 46.718124)"><g><path d="M 17.359375 -2.078125 C 17.679688 -2.078125 18.019531 -2.125 18.375 -2.21875 L 18.375 0 C 17.675781 0.226562 17.109375 0.34375 16.671875 0.34375 C 15.671875 0.34375 14.898438 0.128906 14.359375 -0.296875 C 13.816406 -0.722656 13.523438 -1.429688 13.484375 -2.421875 C 11.742188 -0.460938 9.570312 0.515625 6.96875 0.515625 C 5.28125 0.515625 3.90625 0.03125 2.84375 -0.9375 C 1.78125 -1.90625 1.25 -3.164062 1.25 -4.71875 C 1.25 -6.28125 1.707031 -7.554688 2.625 -8.546875 C 3.550781 -9.546875 4.914062 -10.160156 6.71875 -10.390625 L 11.78125 -11.015625 C 12.332031 -11.085938 12.734375 -11.285156 12.984375 -11.609375 C 13.242188 -11.929688 13.375 -12.441406 13.375 -13.140625 C 13.375 -15.117188 11.953125 -16.109375 9.109375 -16.109375 C 7.867188 -16.109375 6.90625 -15.832031 6.21875 -15.28125 C 5.539062 -14.726562 5.117188 -13.835938 4.953125 -12.609375 L 2.15625 -12.609375 C 2.195312 -14.554688 2.828125 -16.046875 4.046875 -17.078125 C 5.273438 -18.117188 7.082031 -18.640625 9.46875 -18.640625 C 11.5 -18.640625 13.15625 -18.210938 14.4375 -17.359375 C 15.71875 -16.503906 16.359375 -15.234375 16.359375 -13.546875 L 16.359375 -3.078125 C 16.359375 -2.785156 16.4375 -2.546875 16.59375 -2.359375 C 16.757812 -2.171875 17.015625 -2.078125 17.359375 -2.078125 Z M 13.3125 -6.265625 L 13.3125 -9.25 C 13.03125 -9.019531 12.582031 -8.832031 11.96875 -8.6875 C 11.363281 -8.550781 9.984375 -8.335938 7.828125 -8.046875 C 6.722656 -7.878906 5.875 -7.5625 5.28125 -7.09375 C 4.695312 -6.632812 4.40625 -5.976562 4.40625 -5.125 C 4.40625 -3.050781 5.5 -2.015625 7.6875 -2.015625 C 8.632812 -2.015625 9.539062 -2.203125 10.40625 -2.578125 C 11.28125 -2.960938 11.984375 -3.484375 12.515625 -4.140625 C 13.046875 -4.796875 13.3125 -5.503906 13.3125 -6.265625 Z M 13.3125 -6.265625 "/></g></g></g><g fill="#000000" fill-opacity="1"><g transform="translate(71.631682, 79.475475)"><g><path d="M 11.609375 -3.671875 L 18.640625 -24.890625 L 22.421875 -24.890625 L 13.34375 0 L 9.765625 0 L 0.6875 -24.890625 L 4.4375 -24.890625 L 11.546875 -3.671875 Z M 11.609375 -3.671875 "/></g></g></g><g fill="#000000" fill-opacity="1"><g transform="translate(94.745577, 79.475475)"><g><path d="M 17.359375 -2.078125 C 17.679688 -2.078125 18.019531 -2.125 18.375 -2.21875 L 18.375 0 C 17.675781 0.226562 17.109375 0.34375 16.671875 0.34375 C 15.671875 0.34375 14.898438 0.128906 14.359375 -0.296875 C 13.816406 -0.722656 13.523438 -1.429688 13.484375 -2.421875 C 11.742188 -0.460938 9.570312 0.515625 6.96875 0.515625 C 5.28125 0.515625 3.90625 0.03125 2.84375 -0.9375 C 1.78125 -1.90625 1.25 -3.164062 1.25 -4.71875 C 1.25 -6.28125 1.707031 -7.554688 2.625 -8.546875 C 3.550781 -9.546875 4.914062 -10.160156 6.71875 -10.390625 L 11.78125 -11.015625 C 12.332031 -11.085938 12.734375 -11.285156 12.984375 -11.609375 C 13.242188 -11.929688 13.375 -12.441406 13.375 -13.140625 C 13.375 -15.117188 11.953125 -16.109375 9.109375 -16.109375 C 7.867188 -16.109375 6.90625 -15.832031 6.21875 -15.28125 C 5.539062 -14.726562 5.117188 -13.835938 4.953125 -12.609375 L 2.15625 -12.609375 C 2.195312 -14.554688 2.828125 -16.046875 4.046875 -17.078125 C 5.273438 -18.117188 7.082031 -18.640625 9.46875 -18.640625 C 11.5 -18.640625 13.15625 -18.210938 14.4375 -17.359375 C 15.71875 -16.503906 16.359375 -15.234375 16.359375 -13.546875 L 16.359375 -3.078125 C 16.359375 -2.785156 16.4375 -2.546875 16.59375 -2.359375 C 16.757812 -2.171875 17.015625 -2.078125 17.359375 -2.078125 Z M 13.3125 -6.265625 L 13.3125 -9.25 C 13.03125 -9.019531 12.582031 -8.832031 11.96875 -8.6875 C 11.363281 -8.550781 9.984375 -8.335938 7.828125 -8.046875 C 6.722656 -7.878906 5.875 -7.5625 5.28125 -7.09375 C 4.695312 -6.632812 4.40625 -5.976562 4.40625 -5.125 C 4.40625 -3.050781 5.5 -2.015625 7.6875 -2.015625 C 8.632812 -2.015625 9.539062 -2.203125 10.40625 -2.578125 C 11.28125 -2.960938 11.984375 -3.484375 12.515625 -4.140625 C 13.046875 -4.796875 13.3125 -5.503906 13.3125 -6.265625 Z M 13.3125 -6.265625 "/></g></g></g><g fill="#000000" fill-opacity="1"><g transform="translate(114.012926, 79.475475)"><g><path d="M 5.71875 -10.359375 L 5.71875 0 L 2.671875 0 L 2.671875 -18.125 L 5.546875 -18.125 L 5.546875 -15.109375 L 5.609375 -15.109375 C 6.253906 -16.242188 6.988281 -17.113281 7.8125 -17.71875 C 8.632812 -18.332031 9.597656 -18.640625 10.703125 -18.640625 C 11.054688 -18.640625 11.320312 -18.609375 11.5 -18.546875 L 11.5 -15.390625 L 10.328125 -15.390625 C 9.566406 -15.390625 8.832031 -15.207031 8.125 -14.84375 C 7.414062 -14.488281 6.835938 -13.9375 6.390625 -13.1875 C 5.941406 -12.4375 5.71875 -11.492188 5.71875 -10.359375 Z M 5.71875 -10.359375 "/></g></g></g><g fill="#000000" fill-opacity="1"><g transform="translate(125.55255, 79.475475)"><g><path d="M 9.90625 -2.109375 C 10.695312 -2.109375 11.4375 -2.273438 12.125 -2.609375 C 12.820312 -2.953125 13.390625 -3.398438 13.828125 -3.953125 C 14.265625 -4.503906 14.519531 -5.082031 14.59375 -5.6875 L 17.640625 -5.6875 C 17.203125 -3.738281 16.3125 -2.21875 14.96875 -1.125 C 13.632812 -0.03125 11.867188 0.515625 9.671875 0.515625 C 7.910156 0.515625 6.40625 0.125 5.15625 -0.65625 C 3.914062 -1.445312 2.976562 -2.523438 2.34375 -3.890625 C 1.707031 -5.265625 1.390625 -6.832031 1.390625 -8.59375 C 1.390625 -11.664062 2.144531 -14.109375 3.65625 -15.921875 C 5.164062 -17.734375 7.304688 -18.640625 10.078125 -18.640625 C 12.578125 -18.640625 14.5 -17.710938 15.84375 -15.859375 C 17.195312 -14.015625 17.875 -11.421875 17.875 -8.078125 L 4.640625 -8.078125 C 4.640625 -6.128906 5.082031 -4.644531 5.96875 -3.625 C 6.863281 -2.613281 8.175781 -2.109375 9.90625 -2.109375 Z M 9.671875 -15.90625 C 8.796875 -15.90625 7.972656 -15.660156 7.203125 -15.171875 C 6.441406 -14.691406 5.820312 -14.035156 5.34375 -13.203125 C 4.875 -12.367188 4.640625 -11.46875 4.640625 -10.5 L 14.734375 -10.5 C 14.453125 -14.101562 12.765625 -15.90625 9.671875 -15.90625 Z M 9.671875 -15.90625 "/></g></g></g><g fill="#000000" fill-opacity="1"><g transform="translate(144.8199, 79.475475)"><g><path d="M 2.328125 -21.421875 L 2.328125 -24.890625 L 5.375 -24.890625 L 5.375 -21.421875 Z M 0.734375 7.28125 C 0.359375 7.28125 -0.0664062 7.242188 -0.546875 7.171875 L -0.546875 4.546875 L 0.171875 4.546875 C 0.796875 4.546875 1.25 4.492188 1.53125 4.390625 C 1.820312 4.285156 2.023438 4.085938 2.140625 3.796875 C 2.265625 3.503906 2.328125 3.054688 2.328125 2.453125 L 2.328125 -18.125 L 5.375 -18.125 L 5.375 3.015625 C 5.375 5.859375 3.828125 7.28125 0.734375 7.28125 Z M 0.734375 7.28125 "/></g></g></g><g fill="#000000" fill-opacity="1"><g transform="translate(152.512978, 79.475475)"><g><path d="M 9.671875 0.484375 C 7.910156 0.484375 6.390625 0.0546875 5.109375 -0.796875 C 3.828125 -1.648438 2.859375 -2.796875 2.203125 -4.234375 C 1.546875 -5.679688 1.21875 -7.296875 1.21875 -9.078125 C 1.21875 -10.898438 1.554688 -12.535156 2.234375 -13.984375 C 2.910156 -15.429688 3.882812 -16.566406 5.15625 -17.390625 C 6.425781 -18.222656 7.921875 -18.640625 9.640625 -18.640625 C 11.390625 -18.640625 12.898438 -18.210938 14.171875 -17.359375 C 15.441406 -16.503906 16.40625 -15.347656 17.0625 -13.890625 C 17.726562 -12.441406 18.0625 -10.835938 18.0625 -9.078125 C 18.0625 -7.296875 17.722656 -5.671875 17.046875 -4.203125 C 16.378906 -2.742188 15.414062 -1.597656 14.15625 -0.765625 C 12.894531 0.0664062 11.398438 0.484375 9.671875 0.484375 Z M 14.90625 -8.96875 C 14.90625 -11.03125 14.453125 -12.71875 13.546875 -14.03125 C 12.648438 -15.351562 11.332031 -16.015625 9.59375 -16.015625 C 7.9375 -16.015625 6.648438 -15.363281 5.734375 -14.0625 C 4.816406 -12.769531 4.359375 -11.109375 4.359375 -9.078125 C 4.359375 -7.085938 4.816406 -5.4375 5.734375 -4.125 C 6.648438 -2.8125 7.953125 -2.15625 9.640625 -2.15625 C 11.347656 -2.15625 12.648438 -2.8125 13.546875 -4.125 C 14.453125 -5.4375 14.90625 -7.050781 14.90625 -8.96875 Z M 14.90625 -8.96875 "/></g></g></g></svg>